<?xml version="1.0" encoding="UTF-8" standalone="no"?> <!-- Created with Vectornator for iOS (http://vectornator.io/) --><!DOCTYPE svg PUBLIC "-//W3C//DTD SVG 1.1//EN" "http://www.w3.org/Graphics/SVG/1.1/DTD/svg11.dtd">
<svg height="100%" style="fill-rule:nonzero;clip-rule:evenodd;stroke-linecap:round;stroke-linejoin:round;" xmlns:xlink="http://www.w3.org/1999/xlink" xmlns="http://www.w3.org/2000/svg" xml:space="preserve" width="100%" xmlns:vectornator="http://vectornator.io" version="1.1" viewBox="0 0 541.532 669.556">
<metadata>
<vectornator:setting key="TimeLapseWatermarkDisabled" value="0"/>
<vectornator:setting key="doHistoryDisabled" value="0"/>
<vectornator:setting key="IsolateActiveLayer" value="0"/>
<vectornator:setting key="RulersVisible" value="1"/>
<vectornator:setting key="Units" value="Points"/>
<vectornator:setting key="DynamicGuides" value="0"/>
<vectornator:setting key="DimensionsVisible" value="1"/>
<vectornator:setting key="SnapToGuides" value="1"/>
<vectornator:setting key="GuidesVisible" value="1"/>
<vectornator:setting key="SnapToEdges" value="0"/>
<vectornator:setting key="SnapToGrid" value="0"/>
<vectornator:setting key="CMYKEnabledKey" value="0"/>
<vectornator:setting key="PencilOnly" value="0"/>
<vectornator:setting key="DisplayWhiteBackground" value="0"/>
<vectornator:setting key="OutlineMode" value="0"/>
<vectornator:setting key="SnapToPoints" value="0"/>
</metadata>
<defs/>
<g id="Layer 1" vectornator:layerName="Layer 1">
<path d="M117.789+383.086C113.83+383.854+47.8427+399.136+44.4308+400.976C39.6938+403.531+35.0717+406.296+30.4378+409.036C22.0567+413.991+9.05158+427.046+13.4216+443.771C14.5796+448.205+17.5927+453.048+22.9488+457.034C30.4818+462.64+40.9378+469.701+50.8637+483.557C67.8477+507.265+120.083+507.03+126.95+507.656C139.989+508.845+214.892+501.948+214.892+501.948L372.752+514.5C372.752+514.5+476.893+503.811+479.191+498.262C481.404+492.916+522.904+452.435+504.434+426.422C485.959+400.409+456.194+403.794+456.194+398.593C456.194+387.034+230.525+390.98+221.318+381.773" fill-rule="evenodd" fill="#767361" opacity="1"/>
<path fill-rule="evenodd" vectornator:shadowColor="#35332b" vectornator:shadowOpacity="1" vectornator:shadowRadius="0" d="M14.0047+444.774C14.0047+444.774+28.6177+493.26+80.5116+505.575C132.405+517.89+175.501+506.321+232.369+506.847C289.237+507.373+358.242+519.023+396.133+516.31C434.024+513.598+462.737+509.224+476.314+502.473C489.891+495.723+494.502+487.828+494.502+487.828C494.502+487.828+507.352+475.301+509.312+459.403C511.272+443.504+511.903+437.733+503.033+423.739C494.153+409.744+471.292+404.182+471.292+404.182L486.325+432.12C486.325+432.12+475.401+471.513+461.09+482.331C446.778+493.15+460.203+462.013+458.637+462.571C457.07+463.13+362.839+484.211+359.643+484.603C357.647+484.847+212.593+468.778+212.593+468.778C212.593+468.778+196.108+484.298+186.643+484.261C167.608+484.186+154.939+484.131+154.939+484.131L146.989+471.242C146.989+471.242+106.368+486.564+86.6626+482.959C40.5326+474.521+14.0047+444.774+14.0047+444.774Z" vectornator:shadowOffset="0" fill="#35332b" opacity="1" vectornator:shadowAngle="0.814758"/>
<path fill-rule="evenodd" vectornator:shadowColor="#35332b" vectornator:shadowOpacity="1" vectornator:shadowRadius="0" d="M65.3568+449.777C66.6627+450.425+81.6488+461.29+99.5998+462.597C117.551+463.905+136.837+455.336+137.161+455.007C137.161+455.007+144.427+436.542+141.366+435.3C140.008+434.749+109.473+448.173+109.473+448.173C109.473+448.173+64.6297+449.417+65.3568+449.777Z" vectornator:shadowOffset="0" fill="#35332b" opacity="1" vectornator:shadowAngle="0.814758"/>
<path d="M349.548+464.514C349.548+464.514+393.165+463.599+405.727+463.906C424.944+464.376+441.609+453.765+449.844+447.743C457.292+442.296+439.952+412.924+429.659+409.635C421.135+406.912+437.094+426.292+419.853+429.777C402.613+433.263+371.115+417.053+360.696+423.577C357.891+425.334+386.717+435.87+388.379+438.9C396.21+453.182+308.574+454.865+308.574+454.865L349.548+464.514Z" fill-rule="evenodd" fill="#35332b" opacity="1"/>
<path d="M195.539+614.113C195.539+614.113+188.173+482.701+196.705+432.518C205.237+382.334+224.897+380.447+229.366+378.841C239.979+375.028+251.095+373.258+261.902+370.274C271.722+367.562+280.236+361.8+290.182+359.485C313.221+354.123+336.812+350.591+360.001+345.829C369.706+343.836+380.117+342.831+389.546+339.708C394.475+338.075+399.156+335.763+404.042+334.004C407.322+332.824+412.477+331.681+415.238+329.239C419.181+325.752+417.889+319.523+416.219+315.405C412.698+306.72+405.176+300.951+405.176+291.065C405.176+287.961+404.896+283.857+407.619+281.589C415.88+274.707+438.253+275.081+469.244+274.588C500.234+274.095+523.534+277.491+523.044+277.491C520.944+277.491+495.614+282.507+474.952+288.012C454.292+293.516+436.51+289.845+440.402+299.509C444.294+309.173+468.949+326.358+462.561+332.674C459.923+335.282+457.53+351.14+454.441+353.009C442.386+360.305+435.226+361.854+422.891+368.405C414.898+372.651+392.213+373.643+384.695+378.403C378.924+382.057+361.821+379.684+356.871+384.587C355.381+386.063+328.175+381.184+314.038+417.814C299.901+454.444+302.435+492.365+300.323+531.107C299.844+539.898+304.767+628.366+304.767+628.366L195.539+614.113Z" fill-rule="evenodd" fill="#2955bd" opacity="1"/>
<path fill-rule="evenodd" vectornator:shadowColor="#35332b" vectornator:shadowOpacity="1" vectornator:shadowRadius="0" d="M125.908+7.64689L136.439+53.4909L201.939+74.1469C202.183+75.4259+200.937+107.954+199.22+149.897C186.677+146.954+151.564+138.74+151.564+138.741L152.954+164.6L198.189+174.615C194.368+266.236+189.126+384.897+189.126+384.897L212.408+386.303L218.002+178.834L384.689+214.491C380.911+304.476+376.095+413.459+376.095+413.459L399.376+414.865L404.658+218.741L455.158+229.553C455.158+229.553+454.6+207.904+456.345+209.334C456.799+209.706+435.668+204.936+405.22+197.928L407.283+120.865L474.564+130.678C474.564+130.678+514.194+90.4669+515.944+91.8969C516.814+92.6099+383.304+101.696+302.189+78.7409C220.695+55.6769+125.908+7.64689+125.908+7.64689ZM220.658+80.0529C220.658+80.0529+259.333+94.8933+301.271+104.409C343.208+113.924+388.408+118.115+388.408+118.115C388.043+131.244+387.125+155.686+385.564+193.365C324.162+179.171+268.337+166.108+218.658+154.459L220.658+80.0529Z" vectornator:shadowOffset="0" fill="#767361" opacity="1" vectornator:shadowAngle="0.814758"/>
<path fill-rule="evenodd" vectornator:shadowColor="#35332b" vectornator:shadowOpacity="1" vectornator:shadowRadius="0" d="M265.773+104.602C261.079+107.33+259.491+117.653+259.057+131.022C258.643+143.79+258.822+152.9+262.421+157.599C267.132+163.748+275.343+164.442+290.858+167.612C306.372+170.782+314.276+175.106+324.34+170.48C329.751+167.993+328.792+157.464+329.18+145.623C329.599+132.818+331.29+124.798+327.315+118.223C322.812+110.774+317.841+111.225+299.04+107.387C282.011+103.91+271.893+101.044+265.773+104.602Z" vectornator:shadowOffset="2" fill="#767361" opacity="1" vectornator:shadowAngle="0.814758"/>
<path stroke="#35332b" vectornator:shadowColor="#000000" vectornator:shadowOffset="1.5" stroke-width="4" fill="none" stroke-linecap="round" vectornator:shadowAngle="3.70927" stroke-linejoin="round" opacity="1" vectornator:shadowRadius="0" d="M279.136+111.632L277.557+133.628" vectornator:shadowOpacity="1"/>
<path stroke="#35332b" vectornator:shadowColor="#000000" vectornator:shadowOffset="1.5" stroke-width="4" fill="none" stroke-linecap="round" vectornator:shadowAngle="3.70927" stroke-linejoin="round" opacity="1" vectornator:shadowRadius="0" d="M267.174+118.926L292.804+124.341" vectornator:shadowOpacity="1"/>
<path stroke="#35332b" vectornator:shadowColor="#000000" vectornator:shadowOffset="1.5" stroke-width="4" fill="none" stroke-linecap="round" vectornator:shadowAngle="3.70927" stroke-linejoin="round" opacity="1" vectornator:shadowRadius="0" d="M303.596+127.042L323.44+129.828" vectornator:shadowOpacity="1"/>
<path stroke="#35332b" vectornator:shadowColor="#000000" vectornator:shadowOffset="1.5" stroke-width="4" fill="none" stroke-linecap="round" vectornator:shadowAngle="3.70927" stroke-linejoin="round" opacity="1" vectornator:shadowRadius="0" d="M267.811+153.219L290.78+140.884" vectornator:shadowOpacity="1"/>
<path stroke="#35332b" vectornator:shadowColor="#000000" vectornator:shadowOffset="1.5" stroke-width="4" fill="none" stroke-linecap="round" vectornator:shadowAngle="3.70927" stroke-linejoin="round" opacity="1" vectornator:shadowRadius="0" d="M269.232+137.457L286.465+157.337" vectornator:shadowOpacity="1"/>
<path stroke="#35332b" vectornator:shadowColor="#000000" vectornator:shadowOffset="1.5" stroke-width="4" fill="none" stroke-linecap="round" vectornator:shadowAngle="3.70927" stroke-linejoin="round" opacity="1" vectornator:shadowRadius="0" d="M295.777+158.734L320.17+143.924" vectornator:shadowOpacity="1"/>
<path stroke="#35332b" vectornator:shadowColor="#000000" vectornator:shadowOffset="1.5" stroke-width="4" fill="none" stroke-linecap="round" vectornator:shadowAngle="3.70927" stroke-linejoin="round" opacity="1" vectornator:shadowRadius="0" d="M301.423+144.206L301.671+144.122L301.949+143.982L302.348+143.823L302.421+143.786L302.603+143.713L302.748+143.676L302.748+143.676" vectornator:shadowOpacity="1"/>
<path stroke="#35332b" vectornator:shadowColor="#000000" vectornator:shadowOffset="1.5" stroke-width="4" fill="none" stroke-linecap="round" vectornator:shadowAngle="3.70927" stroke-linejoin="round" opacity="1" vectornator:shadowRadius="0" d="M313.866+160.633C314.111+160.069+314.821+160.078+315.12+159.621" vectornator:shadowOpacity="1"/>
<path fill-rule="evenodd" vectornator:shadowColor="#35332b" vectornator:shadowOpacity="1" vectornator:shadowRadius="0" d="M194.541+380.967L210.017+177.485" vectornator:shadowOffset="0" fill="#35332b" opacity="1" vectornator:shadowAngle="0.814758"/>
<path fill-rule="evenodd" vectornator:shadowColor="#35332b" vectornator:shadowOpacity="1" vectornator:shadowRadius="0" d="M195.361+381.389L209.591+176.761L218.713+178.709L213.535+383.198" vectornator:shadowOffset="0" fill="#35332b" opacity="1" vectornator:shadowAngle="0.814758"/>
<path fill-rule="evenodd" vectornator:shadowColor="#35332b" vectornator:shadowOpacity="1" vectornator:shadowRadius="0" d="M159.064+166.169L157.8+152.946L454.939+221.341C455.199+222.686+455.006+228.944+455.006+228.944L159.064+166.169Z" vectornator:shadowOffset="0" fill="#35332b" opacity="1" vectornator:shadowAngle="0.814758"/>
<path fill-rule="evenodd" vectornator:shadowColor="#35332b" vectornator:shadowOpacity="1" vectornator:shadowRadius="0" d="M144.528+33.2398L147.231+55.9368C147.231+55.9368+219.915+86.4786+301.772+105.19C383.629+123.901+474.659+130.781+474.659+130.781L494.509+110.839C494.509+110.839+389.184+107.05+301.688+87.6498C214.193+68.2498+144.528+33.2398+144.528+33.2398Z" vectornator:shadowOffset="0" fill="#35332b" opacity="1" vectornator:shadowAngle="0.814758"/>
<path fill-rule="evenodd" vectornator:shadowColor="#35332b" vectornator:shadowOpacity="1" vectornator:shadowRadius="0" d="M385.516+391.628L402.666+392.874L406.196+217.711L397.768+214.222L385.516+391.628Z" vectornator:shadowOffset="0" fill="#35332b" opacity="1" vectornator:shadowAngle="0.814758"/>
<path fill-rule="evenodd" vectornator:shadowColor="#35332b" vectornator:shadowOpacity="1" vectornator:shadowRadius="0" d="M398.924+117.692L394.899+193.807L405.322+197.472L408.278+120.063C408.278+120.063+393.772+114.983+398.924+117.692Z" vectornator:shadowOffset="0" fill="#35332b" opacity="1" vectornator:shadowAngle="0.814758"/>
<path fill-rule="evenodd" vectornator:shadowColor="#35332b" vectornator:shadowOpacity="1" vectornator:shadowRadius="0" d="M211.582+75.3329L207.557+151.448L217.98+155.112L220.936+77.7039C220.936+77.7039+206.43+72.6229+211.582+75.3329Z" vectornator:shadowOffset="0" fill="#35332b" opacity="1" vectornator:shadowAngle="0.814758"/>
<path fill-rule="evenodd" vectornator:shadowColor="#35332b" vectornator:shadowOpacity="1" vectornator:shadowRadius="0" d="M223.235+456.975L494.564+442.087" vectornator:shadowOffset="0" fill="#35332b" opacity="1" vectornator:shadowAngle="0.814758"/>
<path d="M354.295+455.861L418.877+452.269" fill-rule="evenodd" fill="#e5e5e5" opacity="1"/>
<path d="M254.079+678.534L244.881+583.915" fill-rule="evenodd" fill="#2955bd" opacity="1"/>
<path d="M253.538+382.745C249.547+382.745+245.112+382.589+241.321+384.058C239.956+384.587+238.668+385.329+237.258+385.722C234.311+386.546+230.758+386.835+228.508+389.182C225.824+391.981+224.763+395.056+223.706+398.682C222.264+403.632+220.59+409.007+220.331+414.198C220.217+416.469+220.412+418.757+220.331+421.029C220.173+425.425+219.055+428.938+218.476+433.183C218.431+433.513+217.81+435.778+218.154+436.116C218.206+436.167+218.406+434.915+218.929+433.463C219.326+432.363+219.742+431.27+220.145+430.172C220.894+428.128+221.34+426.033+222.019+423.978C223.323+420.032+225.785+416.436+227.396+412.577C228.35+410.291+229.604+407.828+230.129+405.397C230.414+404.083+230.591+402.473+231.225+401.265C232.575+398.69+236.086+397.977+238.328+396.416C242.547+393.478+247.115+391.536+251.969+389.867C254.595+388.964+257.068+387.446+259.74+386.694C261.845+386.101+265.988+386.387+267.557+385.596" fill-rule="evenodd" fill="#a8f2fb" opacity="1"/>
<path d="M254.2+434.231C246.624+445.255+244.615+455.063+246.106+468.491C246.964+476.218+250.905+483.056+250.36+491.079C249.99+496.525+246.891+501.307+245.338+506.43C242.274+516.542+243.151+522.516+247.071+532.333C247.917+534.452+250.13+537.613+249.038+540.081C248.619+541.029+248.079+541.776+247.824+542.826C247.735+543.191+247.443+544.272+247.596+543.929C249.427+539.821+252.725+534.822+252.166+530.162C251.909+528.019+249.508+526.051+248.959+523.837C247.97+519.847+247.926+514.226+248.665+510.196C249.352+506.445+251.887+503.354+253.639+500.075C256.526+494.671+258.184+485.47+257.915+479.413C257.659+473.665+252.161+469.189+252.537+463.389C252.784+459.576+253.745+455.073+255.046+451.448C255.569+449.991+256.777+448.37+256.99+446.856C257.392+443.995+257.821+440.004+258.839+437.302C259.659+435.128+260.414+433.236+260.824+430.97C261.013+429.927+260.651+428.79+260.824+427.744C260.952+426.967+261.383+426.037+261.383+425.262" fill-rule="evenodd" fill="#a8f2fb" opacity="1"/>
<path d="M222.074+491.746C220.737+494.034+218.927+496.134+217.746+498.513C215.222+503.598+214.086+509.769+214.845+515.397C215.478+520.094+217.431+524.397+219.268+528.692C220.768+532.198+221.735+535.872+222.986+539.467C225.065+545.445+226.908+551.356+226.507+557.779C225.863+568.08+215.335+569.035+213.187+577.939C211.559+584.687+214.584+592.743+218.002+598.429C219.104+600.263+219.838+602.487+220.542+604.499C220.598+604.66+221.484+606.746+221.479+606.743C220.566+606.279+220.093+598.015+219.918+597.208C218.726+591.709+217.534+586.764+217.769+581.089C217.936+577.063+219.751+573.364+219.947+569.363C220.126+565.706+219.226+562.595+217.724+559.302C216.631+556.908+215.271+555.61+216.136+552.956C216.581+551.591+217.831+550.31+218.65+549.177C220.643+546.417+222.842+543.795+225.032+541.204C228.849+536.688+230.961+532.252+231.842+526.433C232.086+524.821+232.186+522.176+231.614+520.609C230.638+517.929+228.135+515.962+227.572+513.071C226.965+509.956+229.069+507.092+229.349+504.1C229.843+498.827+227.536+493.407+228.451+488.081C229.254+483.405+232.278+479.824+234.352+475.749C234.955+474.564+235.192+473.203+235.782+472.003" fill-rule="evenodd" fill="#a8f2fb" opacity="1"/>
<path d="M309.016+401.514C305.425+403.738+300.868+405.44+297.874+408.449C295.028+411.311+293.06+415.956+291.628+419.637C286.044+433.997+291.083+445.066+292.418+459.402C293.187+467.662+287.542+475.08+287.834+483.279C287.953+486.616+288.89+489.591+290.348+492.597C290.78+493.486+291.511+494.355+291.75+495.342C292.495+498.421+292.64+501.689+294.267+504.504C295.045+505.851+297.653+509.207+298.442+510.144C298.977+510.78+300.462+511.402+299.998+512.091C299.959+512.149+299.918+512.239+299.849+512.238C299.648+512.234+299.849+511.836+299.849+511.636C299.849+511.04+299.849+510.445+299.849+509.85C299.849+506.561+300.4+503.546+300.809+500.301C301.714+493.114+298.029+486.34+296.466+479.525C293.871+468.208+298.274+461.27+303.982+452.067C305.908+448.962+309.77+444.679+310.041+440.862C310.306+437.136+309.554+430.181+308.779+426.417C307.263+419.063+305.791+414.072+311.141+407.564C312.646+405.734+315.734+404.749+317.859+403.543" fill-rule="evenodd" fill="#a8f2fb" opacity="1"/>
<path d="M436.062+338.51C438.632+337.368+441.181+336.253+443.772+335.156C444.115+335.011+445.543+334.33+445.891+333.959C447.579+332.159+447.472+327.833+445.67+326.221C443.3+324.1+440.063+322.969+437.611+320.894C436.346+319.823+435.51+318.422+434.645+317.038C432.957+314.338+432.001+313.866+433.81+311.012C434.177+310.433+434.373+309.491+434.863+308.984C434.873+308.974+434.986+309.922+435.268+310.376C435.7+311.072+436.348+311.792+436.87+312.419C438.627+314.531+439.937+315.539+440.784+318.225C442.505+323.681+450.017+326.094+443.793+331.632C443.061+332.283+442.173+332.749+441.391+333.334C440.301+334.149+438.759+335.711+437.318+335.711" fill-rule="evenodd" fill="#a8f2fb" opacity="1"/>
<path d="M420.969+298.977C420.478+297.723+420.104+296.46+420.045+295.102C419.668+286.37+427.688+286.987+434.487+285.674C436.278+285.328+437.841+284.56+439.542+283.968C439.565+283.96+442.068+283.186+442.066+283.297C442.058+283.799+436.441+283.704+435.967+283.704C431.206+283.704+426.847+283.221+422.656+285.821C419.272+287.921+420.623+292.177+420.623+295.466C420.623+296.475+420.678+297.292+420.916+298.275C421.018+298.696+421.321+299.959+421.172+299.551C421.103+299.361+421.043+299.166+420.969+298.977Z" fill-rule="evenodd" fill="#a8f2fb" opacity="1"/>
<path d="M450.686+286.092C451.213+281.003+461.255+284.805+464.86+283.514C466.697+282.855+468.458+282.505+470.402+282.209C470.772+282.152+471.14+282.081+471.508+282.008C471.584+281.993+471.814+281.962+471.736+281.962C469.227+281.962+466.169+282.079+463.775+282.867C461.66+283.563+459.912+284.868+457.778+285.535C456.464+285.946+454.813+285.469+453.465+285.593C452.369+285.694+450.573+287.184+450.686+286.092Z" fill-rule="evenodd" fill="#a8f2fb" opacity="1"/>
<path d="M406.853+338.947C405.149+339.996+407.218+338.198+407.6+337.98C408.586+337.416+409.692+337.062+410.822+336.89C414.873+336.27+418.987+337.562+423.026+336.33C424.736+335.808+426.337+335.002+427.855+334.069C428+333.979+428.192+333.717+428.313+333.838C428.462+333.987+428.075+334.193+427.918+334.333C427.404+334.791+426.547+335.022+425.882+335.022C424.32+335.022+422.7+334.892+421.151+335.126C419.024+335.449+419.666+339.012+417.442+339.25C415.84+339.421+413.972+339.318+412.402+339.02C409.778+338.523+409.022+337.611+406.853+338.947Z" fill-rule="evenodd" fill="#a8f2fb" opacity="1"/>
<path d="M298.219+371.39C298.566+369.605+300.985+368.835+302.444+368.338C307.711+366.543+313.598+367.684+319.104+367.684C322.019+367.684+325.772+368.307+328.643+367.588C331.349+366.911+334.575+365.377+336.99+363.986C339.246+362.686+341.317+360.914+343.962+360.472C346.172+360.102+348.598+360.367+350.829+360.367C354.453+360.367+358.005+360.395+361.607+360.823C365.625+361.301+369.478+361.222+372.352+358.316C372.502+358.164+371.921+358.307+371.713+358.257C371.495+358.204+371.28+358.134+371.059+358.092C370.021+357.896+369.575+358.056+368.619+358.371C366.526+359.059+364.526+360.024+362.453+360.797C361.254+361.244+360.322+362.095+359.12+362.56C354.313+364.418+349.496+366.887+344.552+368.294C341.815+369.073+338.483+369.707+335.654+369.025C331.513+368.026+327.402+365.084+322.914+365.698C319.911+366.109+316.349+367.33+313.635+368.621C311.745+369.521+309.876+370.86+307.903+371.575C304.258+372.897+301.118+371.589+297.309+372.215C296.68+372.319+295.918+372.472+295.313+372.671C295.005+372.772+294.288+374.792+293.107+374.792" fill-rule="evenodd" fill="#a8f2fb" opacity="1"/>
<path d="M196.146+610.436C195.535+612.25+196.015+614.458+196.201+616.288C196.59+620.111+196.218+623.891+196.749+627.705C197.06+629.932+196.888+632.833+196.557+635.033C196.318+636.622+195.09+638.761+195.486+640.351C195.587+640.758+196.93+641.771+197.195+642.277C198.762+645.271+198.776+648.642+200.104+651.722C200.443+652.508+201.426+653.359+201.426+654.236C201.426+654.734+201.668+656.208+201.668+655.71C201.668+647.949+196.792+639.45+199.118+631.705C200.605+626.754+208.302+630.204+209.207+625.369C209.69+622.793+209.892+619.868+209.361+617.258C208.951+615.241+208.137+613.03+208.391+610.925C208.427+610.632+209.485+607.299+209.528+607.321C210.05+607.577+210.095+609.616+210.287+610.197C210.681+611.388+211.626+612.454+212.326+613.457C218.445+622.234+223.5+631.393+227.096+641.648C228.151+644.658+228.935+648.301+228.935+651.506C228.935+652.066+229.317+653.576+228.718+653.871C227.731+654.356+227.752+651.834+227.686+650.736C227.526+648.054+227.686+645.306+227.686+642.619C227.686+638.412+226.859+632.859+228.343+628.792C229.034+626.896+230.517+625.337+231.45+623.59C231.558+623.388+232.498+620.294+233.102+620.289C233.115+620.288+234.639+626.48+234.89+627.609C235.919+632.254+236.575+635.766+239.079+639.944C241.886+644.628+244.402+648.59+246.193+653.787C246.634+655.067+247.743+656.751+247.399+656.749C247.073+656.748+243.568+650.654+243.677+649.33C243.889+646.742+244.555+644.237+245.965+642.022C246.922+640.519+248.451+638.959+248.856+637.117C249.85+632.599+248.471+628.086+252.072+624.361C252.171+624.258+252.072+624.645+252.072+624.788C252.072+625.569+252.072+626.35+252.072+627.131C252.072+629.338+252.37+630.674+253.522+632.468C254.966+634.715+257.372+635.935+258.915+638.104C261.525+641.772+258.786+654.217+258.102+657.71C257.792+659.298+257.045+660.779+257.902+662.286C257.998+662.454+259.964+665.161+259.421+665.152C259.112+665.147+260.228+662.825+260.117+662.492C259.544+660.771+258.836+658.959+258.231+657.151C256.728+652.662+252.783+645.997+254.599+641.143C256.235+636.77+260.048+635.677+263.509+633.168C265.579+631.668+267.018+629.987+268.567+627.976C269.253+627.086+270.854+625.533+270.854+624.289C270.854+623.838+270.854+625.191+270.854+625.642C270.854+627.268+270.938+626.739+270.437+628.693C269.846+631.002+269.688+633.319+270.414+635.667C271.931+640.579+278.013+643.691+278.992+648.734C279.483+651.262+278.49+654.029+277.584+656.331C277.308+657.034+277.577+658.47+276.821+658.465C276.54+658.464+276.605+658.314+276.605+658.141C276.605+655.795+279.137+654.502+279.137+652.19C279.137+649.915+279.612+646.109+281.047+644.33C282.602+642.403+285.354+641.537+286.971+639.642C288.437+637.924+287.264+635.268+288.621+633.896C289.806+632.697+292.322+632.581+293.872+632.081C295.17+631.662+295.558+631.455+296.728+631.282C296.874+631.26+297.262+631.072+297.156+631.173C294.219+633.963+288.586+637.302+289.068+642.046C289.252+643.847+291.277+645.948+291.815+647.749C293.084+651.996+293.126+656.225+293.126+660.623C293.126+662.11+293.518+665.712+291.764+666.575C290.8+667.048+291.399+664.418+291.575+663.359C292.181+659.715+293.131+656.011+293.564+652.333C294.013+648.519+290.714+644.971+291.815+641.391C293.674+635.342+303.821+635.146+298.776+628.42C298.586+628.166+297.392+627.872+297.392+627.525C297.392+626.282+298.169+627.1+298.489+627.923C299.501+630.53+301.777+634.025+302.361+636.787C303.164+640.589+300.45+644.117+302.423+647.676C303.356+649.358+304.666+650.748+305.679+652.364C305.748+652.474+306.978+654.132+306.664+654.052C303.389+653.22+303.162+647.765+303.162+645.212C303.162+637.615+304.097+629.002+304.097+621.526" fill-rule="evenodd" fill="#2955bd" opacity="1"/>
<path d="M287.185+537.925C286.95+538.806+285.973+539.627+285.552+540.276C284.301+542.201+283.18+544.471+282.091+546.485C279.886+550.567+278.865+555.498+279.464+560.136C280.027+564.489+281.397+569.403+283.034+573.408C285.981+580.622+290.734+586.883+290.016+595.1C289.384+602.329+285.296+608.677+282.631+615.253C281.704+617.542+280.422+620.491+280.957+623.065C282.235+629.219+287.933+633.431+291.176+638.536C296.086+646.264+295.281+652.831+291.947+660.883C291.826+661.175+292.795+659.105+292.8+659.097C293.388+658.105+294.009+657.132+294.662+656.181C296.807+653.05+297.818+649.29+297.624+645.484C297.519+643.419+296.588+641.9+296.316+639.966C295.945+637.321+295.435+634.847+294.345+632.375C293.413+630.259+291.527+628.826+290.825+626.485C289.907+623.424+290.087+619.981+290.372+616.848C290.657+613.718+291.337+610.617+291.613+607.491C291.903+604.21+291.047+600.893+291.263+597.584C291.548+593.228+293.27+588.95+293.428+584.63C293.523+582.033+292.239+579.792+292.125+577.234C291.995+574.297+292.302+571.335+292.125+568.4C291.799+562.98+287.574+559.156+284.468+555.141C283.708+554.159+282.366+553.1+281.976+551.842C281.26+549.532+282.125+545.877+283.216+543.823C283.815+542.695+284.781+542.015+285.059+540.744" fill-rule="evenodd" fill="#a8f2fb" opacity="1"/>
</g>
</svg>
